<?xml version="1.0" encoding="UTF-8" standalone="no"?>
<!-- Generator: Adobe Illustrator 19.0.0, SVG Export Plug-In . SVG Version: 6.00 Build 0)  -->

<svg
   version="1.1"
   id="Layer_1"
   x="0px"
   y="0px"
   viewBox="0 0 980 275"
   xml:space="preserve"
   sodipodi:docname="vslc-ttlogo.svg"
   width="980"
   height="275"
   inkscape:version="1.1.2 (0a00cf5339, 2022-02-04)"
   inkscape:export-filename="/home/jim/bitmap.png"
   inkscape:export-xdpi="20.078432"
   inkscape:export-ydpi="20.078432"
   xmlns:inkscape="http://www.inkscape.org/namespaces/inkscape"
   xmlns:sodipodi="http://sodipodi.sourceforge.net/DTD/sodipodi-0.dtd"
   xmlns="http://www.w3.org/2000/svg"
   xmlns:svg="http://www.w3.org/2000/svg"><defs
   id="defs2884" /><sodipodi:namedview
   id="namedview2882"
   pagecolor="#ffffff"
   bordercolor="#666666"
   borderopacity="1.0"
   inkscape:pageshadow="2"
   inkscape:pageopacity="1"
   inkscape:pagecheckerboard="0"
   showgrid="false"
   inkscape:zoom="0.38583845"
   inkscape:cx="160.68902"
   inkscape:cy="88.119783"
   inkscape:window-width="1366"
   inkscape:window-height="719"
   inkscape:window-x="0"
   inkscape:window-y="25"
   inkscape:window-maximized="1"
   inkscape:current-layer="Layer_1" />
<g
   id="g2879"
   transform="translate(-207.8,-96.4)">
	<path
   d="m 341,96.4 c -44.5,0 -83.9,21.9 -108.1,55.5 -7.9,11 -14.2,23.2 -18.5,36.4 h 21.6 52.1 v 90.1 h 39.3 v -24.3 h 22.7 v 87.8 c -3,0.3 -6.1,0.4 -9.2,0.4 -62.2,0 -112.8,-50.6 -112.8,-112.8 0,-10.3 1.4,-20.2 4,-29.6 h -21 c -2.2,9.5 -3.3,19.4 -3.3,29.6 0,73.4 59.7,133.1 133.1,133.1 3.1,0 6.1,-0.1 9.2,-0.3 1.7,-0.1 3.4,-0.3 5.1,-0.5 0.1,0 0.3,0 0.4,0 11.8,-1.3 23.1,-4.1 33.8,-8.3 v 0 c 0,0 0,0 0,0 V 254.1 H 428 V 217.7 H 327.5 V 188.2 H 366 V 151.8 H 259.3 c 20.5,-21.6 49.6,-35.1 81.7,-35.1 62.2,0 112.8,50.6 112.8,112.8 0,40.1 -21,75.4 -52.6,95.4 v 23.4 c 43.3,-22 73,-67 73,-118.8 C 474.1,156.1 414.4,96.4 341,96.4 Z"
   id="path2877" />
</g>
<text
   xml:space="preserve"
   style="font-style:normal;font-variant:normal;font-weight:bold;font-stretch:normal;font-size:189.333px;line-height:1.25;font-family:'DejaVu Serif';-inkscape-font-specification:'DejaVu Serif Bold';letter-spacing:0px;word-spacing:0px;fill:#000000;fill-opacity:1;stroke:none"
   x="248.6869"
   y="140.52058"
   id="text4178"><tspan
     sodipodi:role="line"
     id="tspan4176"
     x="248.6869"
     y="140.52058"
     style="font-style:normal;font-variant:normal;font-weight:bold;font-stretch:normal;font-size:189.333px;font-family:'DejaVu Serif';-inkscape-font-specification:'DejaVu Serif Bold'">10</tspan></text><text
   xml:space="preserve"
   style="font-style:normal;font-weight:normal;font-size:192px;line-height:1.25;font-family:sans-serif;letter-spacing:0px;word-spacing:0px;fill:#000000;fill-opacity:1;stroke:none"
   x="619.36792"
   y="274.51627"
   id="text7916"><tspan
     sodipodi:role="line"
     id="tspan7914"
     x="619.36792"
     y="274.51627"
     style="font-style:normal;font-variant:normal;font-weight:normal;font-stretch:normal;font-size:192px;font-family:'dark forest';-inkscape-font-specification:'dark forest'">JSK</tspan></text><text
   xml:space="preserve"
   style="font-style:normal;font-weight:normal;font-size:96px;line-height:1.25;font-family:sans-serif;letter-spacing:0px;word-spacing:0px;fill:#000000;fill-opacity:1;stroke:none"
   x="272.51218"
   y="246.82558"
   id="text10366"
   inkscape:export-filename="/home/jim/bitmap.png"
   inkscape:export-xdpi="20.078432"
   inkscape:export-ydpi="20.078432"><tspan
     sodipodi:role="line"
     id="tspan10364"
     x="272.51218"
     y="246.82558"
     style="font-style:normal;font-variant:normal;font-weight:bold;font-stretch:normal;font-size:96px;font-family:'Bitstream Vera Sans Mono';-inkscape-font-specification:'Bitstream Vera Sans Mono Bold'">2025</tspan></text><text
   xml:space="preserve"
   style="font-size:192px;line-height:1.25;font-family:Crystal;-inkscape-font-specification:Crystal;letter-spacing:0px;word-spacing:0px"
   x="555.81384"
   y="120.9375"
   id="text17149"
   inkscape:export-filename="/home/jim/bitmap.png"
   inkscape:export-xdpi="20.078432"
   inkscape:export-ydpi="20.078432"><tspan
     sodipodi:role="line"
     id="tspan17147"
     x="555.81384"
     y="120.9375"
     style="font-style:normal;font-variant:normal;font-weight:normal;font-stretch:normal;font-size:192px;font-family:'Gentium Book Basic';-inkscape-font-specification:'Gentium Book Basic'">VSLC</tspan></text></svg>
