<?xml version="1.0" encoding="UTF-8" standalone="no"?>
<!DOCTYPE svg PUBLIC "-//W3C//DTD SVG 1.1//EN"
 "http://www.w3.org/Graphics/SVG/1.1/DTD/svg11.dtd">
<!-- Generated by graphviz version 2.43.0 (0)
 -->
<!-- Title: %3 Pages: 1 -->
<svg width="659pt" height="699pt"
 viewBox="0.00 0.00 658.50 699.29" xmlns="http://www.w3.org/2000/svg" xmlns:xlink="http://www.w3.org/1999/xlink">
<g id="graph0" class="graph" transform="scale(1 1) rotate(0) translate(4 695.29)">
<title>%3</title>
<polygon fill="white" stroke="transparent" points="-4,4 -4,-695.29 654.5,-695.29 654.5,4 -4,4"/>
<!-- system_reset -->
<g id="node1" class="node">
<title>system_reset</title>
<ellipse fill="none" stroke="black" cx="281.5" cy="-615.14" rx="72.28" ry="72.28"/>
<ellipse fill="none" stroke="black" cx="281.5" cy="-615.14" rx="76.29" ry="76.29"/>
<text text-anchor="middle" x="281.5" y="-611.44" font-family="Times,serif" font-size="14.00">system_reset</text>
</g>
<!-- start scan_cycle -->
<g id="node2" class="node">
<title>start scan_cycle</title>
<polygon fill="none" stroke="black" points="347,-502 216,-502 216,-466 347,-466 347,-502"/>
<text text-anchor="middle" x="281.5" y="-480.3" font-family="Times,serif" font-size="14.00">start scan_cycle</text>
</g>
<!-- system_reset&#45;&gt;start scan_cycle -->
<g id="edge1" class="edge">
<title>system_reset&#45;&gt;start scan_cycle</title>
<path fill="none" stroke="black" d="M281.5,-538.65C281.5,-529.24 281.5,-520.14 281.5,-512.2"/>
<polygon fill="black" stroke="black" points="285,-512.16 281.5,-502.16 278,-512.16 285,-512.16"/>
</g>
<!-- latch input -->
<g id="node3" class="node">
<title>latch input</title>
<polygon fill="none" stroke="black" points="164.5,-429 70.5,-429 70.5,-393 164.5,-393 164.5,-429"/>
<text text-anchor="middle" x="117.5" y="-407.3" font-family="Times,serif" font-size="14.00">latch input</text>
</g>
<!-- start scan_cycle&#45;&gt;latch input -->
<g id="edge2" class="edge">
<title>start scan_cycle&#45;&gt;latch input</title>
<path fill="none" stroke="black" d="M242.22,-465.99C219.46,-456.14 190.62,-443.66 166.4,-433.17"/>
<polygon fill="black" stroke="black" points="167.6,-429.87 157.03,-429.11 164.82,-436.3 167.6,-429.87"/>
</g>
<!-- cycle eeprom_chip_select -->
<g id="node4" class="node">
<title>cycle eeprom_chip_select</title>
<polygon fill="none" stroke="black" points="380,-429 183,-429 183,-393 380,-393 380,-429"/>
<text text-anchor="middle" x="281.5" y="-407.3" font-family="Times,serif" font-size="14.00">cycle eeprom_chip_select</text>
</g>
<!-- start scan_cycle&#45;&gt;cycle eeprom_chip_select -->
<g id="edge3" class="edge">
<title>start scan_cycle&#45;&gt;cycle eeprom_chip_select</title>
<path fill="none" stroke="black" d="M281.5,-465.81C281.5,-457.79 281.5,-448.05 281.5,-439.07"/>
<polygon fill="black" stroke="black" points="285,-439.03 281.5,-429.03 278,-439.03 285,-439.03"/>
</g>
<!-- send eeprom_read_command -->
<g id="node5" class="node">
<title>send eeprom_read_command</title>
<polygon fill="none" stroke="black" points="381.5,-356 157.5,-356 157.5,-320 381.5,-320 381.5,-356"/>
<text text-anchor="middle" x="269.5" y="-334.3" font-family="Times,serif" font-size="14.00">send eeprom_read_command</text>
</g>
<!-- cycle eeprom_chip_select&#45;&gt;send eeprom_read_command -->
<g id="edge4" class="edge">
<title>cycle eeprom_chip_select&#45;&gt;send eeprom_read_command</title>
<path fill="none" stroke="black" d="M278.6,-392.81C277.24,-384.79 275.59,-375.05 274.08,-366.07"/>
<polygon fill="black" stroke="black" points="277.5,-365.31 272.38,-356.03 270.59,-366.47 277.5,-365.31"/>
</g>
<!-- send start_address -->
<g id="node6" class="node">
<title>send start_address</title>
<polygon fill="none" stroke="black" points="312.5,-283 160.5,-283 160.5,-247 312.5,-247 312.5,-283"/>
<text text-anchor="middle" x="236.5" y="-261.3" font-family="Times,serif" font-size="14.00">send start_address</text>
</g>
<!-- send eeprom_read_command&#45;&gt;send start_address -->
<g id="edge5" class="edge">
<title>send eeprom_read_command&#45;&gt;send start_address</title>
<path fill="none" stroke="black" d="M261.51,-319.81C257.66,-311.53 252.96,-301.41 248.67,-292.19"/>
<polygon fill="black" stroke="black" points="251.8,-290.62 244.41,-283.03 245.46,-293.57 251.8,-290.62"/>
</g>
<!-- read start_address -->
<g id="node7" class="node">
<title>read start_address</title>
<polygon fill="none" stroke="black" points="151,-196 0,-196 0,-160 151,-160 151,-196"/>
<text text-anchor="middle" x="75.5" y="-174.3" font-family="Times,serif" font-size="14.00">read start_address</text>
</g>
<!-- send start_address&#45;&gt;read start_address -->
<g id="edge6" class="edge">
<title>send start_address&#45;&gt;read start_address</title>
<path fill="none" stroke="black" d="M160.12,-258.73C117.3,-254.01 69.86,-245.21 56.5,-229 50.77,-222.05 52.11,-213.2 55.98,-204.88"/>
<polygon fill="black" stroke="black" points="59.03,-206.59 60.96,-196.17 52.95,-203.11 59.03,-206.59"/>
<text text-anchor="middle" x="139.5" y="-217.8" font-family="Times,serif" font-size="14.00">start_address==0x000</text>
</g>
<!-- read execute instruction -->
<g id="node9" class="node">
<title>read execute instruction</title>
<polygon fill="none" stroke="black" points="332,-36 141,-36 141,0 332,0 332,-36"/>
<text text-anchor="middle" x="236.5" y="-14.3" font-family="Times,serif" font-size="14.00">read execute instruction</text>
</g>
<!-- send start_address&#45;&gt;read execute instruction -->
<g id="edge9" class="edge">
<title>send start_address&#45;&gt;read execute instruction</title>
<path fill="none" stroke="black" d="M236.5,-246.77C236.5,-204.86 236.5,-97.31 236.5,-46.44"/>
<polygon fill="black" stroke="black" points="240,-46.21 236.5,-36.21 233,-46.21 240,-46.21"/>
<text text-anchor="middle" x="321" y="-130.8" font-family="Times,serif" font-size="14.00">start_address!=0x0000</text>
</g>
<!-- read end_address -->
<g id="node8" class="node">
<title>read end_address</title>
<polygon fill="none" stroke="black" points="198,-109 55,-109 55,-73 198,-73 198,-109"/>
<text text-anchor="middle" x="126.5" y="-87.3" font-family="Times,serif" font-size="14.00">read end_address</text>
</g>
<!-- read start_address&#45;&gt;read end_address -->
<g id="edge7" class="edge">
<title>read start_address&#45;&gt;read end_address</title>
<path fill="none" stroke="black" d="M85.82,-159.8C93.01,-147.82 102.73,-131.62 110.87,-118.06"/>
<polygon fill="black" stroke="black" points="114.05,-119.55 116.19,-109.18 108.05,-115.95 114.05,-119.55"/>
</g>
<!-- read end_address&#45;&gt;read execute instruction -->
<g id="edge8" class="edge">
<title>read end_address&#45;&gt;read execute instruction</title>
<path fill="none" stroke="black" d="M152.85,-72.99C167.43,-63.58 185.75,-51.76 201.52,-41.57"/>
<polygon fill="black" stroke="black" points="203.48,-44.48 209.99,-36.11 199.69,-38.6 203.48,-44.48"/>
</g>
<!-- read execute instruction&#45;&gt;start scan_cycle -->
<g id="edge11" class="edge">
<title>read execute instruction&#45;&gt;start scan_cycle</title>
<path fill="none" stroke="black" d="M320.69,-36.03C369.14,-48.34 420.5,-66.85 420.5,-90 420.5,-412 420.5,-412 420.5,-412 420.5,-444.68 389.65,-462.32 357.02,-471.85"/>
<polygon fill="black" stroke="black" points="356.09,-468.48 347.34,-474.44 357.9,-475.24 356.09,-468.48"/>
<text text-anchor="middle" x="535.5" y="-261.3" font-family="Times,serif" font-size="14.00">current_address==end_address</text>
</g>
<!-- read execute instruction&#45;&gt;read execute instruction -->
<g id="edge10" class="edge">
<title>read execute instruction&#45;&gt;read execute instruction</title>
<path fill="none" stroke="black" d="M332.14,-23.72C342.98,-22.65 350,-20.74 350,-18 350,-16.24 347.12,-14.83 342.2,-13.76"/>
<polygon fill="black" stroke="black" points="342.54,-10.27 332.14,-12.28 341.52,-17.2 342.54,-10.27"/>
<text text-anchor="middle" x="462" y="-14.3" font-family="Times,serif" font-size="14.00">current_address!=end_address</text>
</g>
</g>
</svg>
